<svg xmlns="http://www.w3.org/2000/svg" viewBox="0 0 32 32">
  <!-- Dark background circle -->
  <circle cx="16" cy="16" r="16" fill="#1a1a16"/>
  
  <!-- Ground line - subtle, slightly curved -->
  <path d="M4 22 Q16 21 28 22" stroke="#8a917a" stroke-width="0.6" fill="none" opacity="0.6"/>
  
  <!-- Root system - offwhite, organic branching shapes below ground -->
  <path d="M16 22 Q14 24 11 25 Q9 25.5 7 25" stroke="#d4cfc4" stroke-width="1" fill="none" stroke-linecap="round" opacity="0.6"/>
  <path d="M11 25 Q10 26.5 8 28" stroke="#d4cfc4" stroke-width="0.6" fill="none" stroke-linecap="round" opacity="0.4"/>
  <path d="M16 22 Q18 24 21 25 Q23 25.5 25 25" stroke="#d4cfc4" stroke-width="1" fill="none" stroke-linecap="round" opacity="0.6"/>
  <path d="M21 25 Q22 26.5 24 28" stroke="#d4cfc4" stroke-width="0.6" fill="none" stroke-linecap="round" opacity="0.4"/>
  <path d="M16 22 Q15 25 13 27" stroke="#d4cfc4" stroke-width="0.7" fill="none" stroke-linecap="round" opacity="0.45"/>
  <path d="M16 22 Q17 25 19 27" stroke="#d4cfc4" stroke-width="0.7" fill="none" stroke-linecap="round" opacity="0.45"/>
  <!-- Fine root hairs -->
  <path d="M7 25 Q6 26 5 26.5" stroke="#d4cfc4" stroke-width="0.4" fill="none" stroke-linecap="round" opacity="0.3"/>
  <path d="M25 25 Q26 26 27 26.5" stroke="#d4cfc4" stroke-width="0.4" fill="none" stroke-linecap="round" opacity="0.3"/>
  <path d="M13 27 Q12 28.5 11 29" stroke="#d4cfc4" stroke-width="0.4" fill="none" stroke-linecap="round" opacity="0.25"/>
  <path d="M19 27 Q20 28.5 21 29" stroke="#d4cfc4" stroke-width="0.4" fill="none" stroke-linecap="round" opacity="0.25"/>
  
  <!-- Trunk - birch white, shifted higher -->
  <line x1="16" y1="22" x2="16" y2="9" stroke="#e8e4dc" stroke-width="2" stroke-linecap="round"/>
  
  <!-- Canopy - shifted higher, brighter greens -->
  <circle cx="16" cy="6" r="5.5" fill="#4a8a4a" opacity="0.95"/>
  <circle cx="11.5" cy="8.5" r="4" fill="#3d7a3d" opacity="0.85"/>
  <circle cx="20.5" cy="8.5" r="4" fill="#3d7a3d" opacity="0.85"/>
  <circle cx="13.5" cy="3.5" r="3.5" fill="#5a9a5a" opacity="0.8"/>
  <circle cx="18.5" cy="4.5" r="3" fill="#5a9a5a" opacity="0.7"/>
  <circle cx="16" cy="2" r="2.5" fill="#6aaa6a" opacity="0.6"/>
  
  <!-- Light edges on canopy -->
  <circle cx="16" cy="6" r="5.5" fill="none" stroke="#7aba7a" stroke-width="0.4" opacity="0.5"/>
  <circle cx="11.5" cy="8.5" r="4" fill="none" stroke="#7aba7a" stroke-width="0.3" opacity="0.4"/>
  <circle cx="20.5" cy="8.5" r="4" fill="none" stroke="#7aba7a" stroke-width="0.3" opacity="0.4"/>
  
  <!-- Amber light point in canopy -->
  <circle cx="16" cy="6" r="1.5" fill="#c4883a"/>
  <circle cx="16" cy="6" r="2.5" fill="#c4883a" opacity="0.3"/>
</svg>
